<?xml version="1.0" encoding="UTF-8"?>
<!DOCTYPE svg PUBLIC "-//W3C//DTD SVG 1.1//EN" "http://www.w3.org/Graphics/SVG/1.1/DTD/svg11.dtd">
<!-- Creator: CorelDRAW X7 -->
<svg xmlns="http://www.w3.org/2000/svg" xml:space="preserve" width="24px" height="101px" version="1.1" style="shape-rendering:geometricPrecision; text-rendering:geometricPrecision; image-rendering:optimizeQuality; fill-rule:evenodd; clip-rule:evenodd"
viewBox="0 0 23 98"
 xmlns:xlink="http://www.w3.org/1999/xlink">
 <defs>
  <style type="text/css">
   <![CDATA[
    .fil6 {fill:none}
    .fil3 {fill:#FAD692}
    .fil2 {fill:#F3CD84}
    .fil4 {fill:#E5BD72}
    .fil5 {fill:#5FB246}
    .fil0 {fill:#49AD3C}
    .fil1 {fill:#28A83E}
   ]]>
  </style>
 </defs>
 <g id="Слой_x0020_1">
  <metadata id="CorelCorpID_0Corel-Layer"/>
  <path class="fil0" d="M0 91c0,4 3,7 6,7l11 0c3,0 6,-3 6,-7l-23 0z"/>
  <path class="fil1" d="M7 91c0,4 3,7 6,7l4 0c3,0 6,-3 6,-7l-16 0z"/>
  <polygon class="fil2" points="12,29 0,49 0,53 23,53 23,49 "/>
  <polygon class="fil3" points="0,49 0,53 7,53 7,49 12,29 "/>
  <polygon class="fil4" points="12,29 16,49 16,53 23,53 23,49 "/>
  <path class="fil0" d="M12 29l-3 5c0,0 1,0 3,0 1,0 3,0 3,0l-3 -5z"/>
  <path class="fil0" d="M20 50c-4,0 -4,-1 -4,-1 0,0 0,1 -4,1 -5,0 -5,-1 -5,-1 0,0 0,1 -3,1 -4,0 -4,-1 -4,-1l0 42 23 0 0 -42c0,0 0,1 -3,1z"/>
  <path class="fil5" d="M4 50c-4,0 -4,-1 -4,-1l0 42 7 0 0 -42c0,0 0,1 -3,1z"/>
  <path class="fil1" d="M20 50c-4,0 -4,-1 -4,-1l0 42 7 0 0 -42c0,0 0,1 -3,1z"/>
  <rect class="fil6" width="23.1663" height="97.4918"/>
 </g>
</svg>

