<?xml version="1.0" encoding="UTF-8"?>
<!DOCTYPE svg PUBLIC "-//W3C//DTD SVG 1.1//EN" "http://www.w3.org/Graphics/SVG/1.1/DTD/svg11.dtd">
<!-- Creator: CorelDRAW X7 -->
<svg xmlns="http://www.w3.org/2000/svg" xml:space="preserve" width="24px" height="100px" version="1.1" style="shape-rendering:geometricPrecision; text-rendering:geometricPrecision; image-rendering:optimizeQuality; fill-rule:evenodd; clip-rule:evenodd"
viewBox="0 0 24 100"
 xmlns:xlink="http://www.w3.org/1999/xlink">
 <defs>
  <style type="text/css">
   <![CDATA[
    .fil7 {fill:none}
    .fil5 {fill:#FCC000}
    .fil0 {fill:#F8AD03}
    .fil1 {fill:#F6A30A}
    .fil6 {fill:#FCDB00}
    .fil3 {fill:#FAD692}
    .fil2 {fill:#F3CD84}
    .fil4 {fill:#E5BD72}
   ]]>
  </style>
 </defs>
 <g id="Слой_x0020_1">
  <metadata id="CorelCorpID_0Corel-Layer"/>
  <path class="fil0" d="M0 94c0,3 3,6 6,6l11 0c4,0 7,-3 7,-6l-24 0z"/>
  <path class="fil1" d="M7 94c0,3 3,6 6,6l4 0c4,0 7,-3 7,-6l-17 0z"/>
  <polygon class="fil2" points="12,17 0,37 0,41 24,41 24,37 "/>
  <polygon class="fil3" points="0,37 0,41 7,41 7,37 12,17 "/>
  <polygon class="fil4" points="12,17 16,37 16,41 24,41 24,37 "/>
  <path class="fil5" d="M12 17l-3 5c0,0 1,1 3,1 1,0 3,-1 3,-1l-3 -5z"/>
  <path class="fil5" d="M20 40c-4,0 -4,-3 -4,-3 0,0 0,3 -4,3 -5,0 -5,-3 -5,-3 0,0 0,3 -3,3 -4,0 -4,-3 -4,-3l0 57 24 0 0 -57c0,0 0,3 -4,3z"/>
  <path class="fil6" d="M4 40c-4,0 -4,-3 -4,-3l0 57 7 0 0 -57c0,0 0,3 -3,3z"/>
  <path class="fil1" d="M20 40c-4,0 -4,-3 -4,-3l0 57 8 0 0 -57c0,0 0,3 -4,3z"/>
  <rect class="fil7" width="23.7125" height="99.7901"/>
 </g>
</svg>

