<?xml version="1.0" encoding="UTF-8"?>
<!DOCTYPE svg PUBLIC "-//W3C//DTD SVG 1.1//EN" "http://www.w3.org/Graphics/SVG/1.1/DTD/svg11.dtd">
<!-- Creator: CorelDRAW X7 -->
<svg xmlns="http://www.w3.org/2000/svg" xml:space="preserve" width="100px" height="152px" version="1.1" style="shape-rendering:geometricPrecision; text-rendering:geometricPrecision; image-rendering:optimizeQuality; fill-rule:evenodd; clip-rule:evenodd"
viewBox="0 0 1343 2041"
 xmlns:xlink="http://www.w3.org/1999/xlink">
 <defs>
  <style type="text/css">
   <![CDATA[
    .str0 {stroke:#62094C;stroke-width:4.78481}
    .fil7 {fill:none}
    .fil6 {fill:none;fill-rule:nonzero}
    .fil4 {fill:#C986CC;fill-rule:nonzero}
    .fil5 {fill:#F1A2F1;fill-rule:nonzero}
    .fil0 {fill:#F65339;fill-rule:nonzero}
    .fil3 {fill:#FF7460;fill-rule:nonzero}
    .fil2 {fill:#5A1919;fill-rule:nonzero;fill-opacity:0.090196}
    .fil1 {fill:#CC9CD1;fill-rule:nonzero;fill-opacity:0.141176}
   ]]>
  </style>
 </defs>
 <g id="Слой_x0020_1">
  <metadata id="CorelCorpID_0Corel-Layer"/>
  <g id="_659751856">
   <path class="fil0" d="M1328 590c0,-133 -1315,-126 -1315,7 0,0 0,1203 0,1203 0,133 294,241 658,241 363,0 657,-108 657,-241 0,0 0,-1210 0,-1210z"/>
   <path class="fil1" d="M636 2041c11,0 23,0 35,0 219,0 413,-39 532,-99l0 -1295 -567 0 0 1394z"/>
   <path class="fil2" d="M13 585c0,0 0,45 0,116 60,113 332,198 658,198 325,0 597,-85 657,-198 0,-75 0,-123 0,-123 0,-133 -1315,-126 -1315,7z"/>
   <path class="fil0" d="M1341 478c0,-136 -300,-246 -670,-246 -371,0 -671,110 -671,246l0 147c0,135 300,245 671,245 370,0 670,-110 670,-245l0 -147z"/>
   <path class="fil1" d="M636 870c11,0 23,0 35,0 217,0 410,-37 532,-96l0 -216 -567 0 0 312z"/>
   <path class="fil3" d="M1341 478c0,136 -300,246 -670,246 -371,0 -671,-110 -671,-246 0,-136 300,-246 671,-246 370,0 670,110 670,246z"/>
   <g>
    <path class="fil2" d="M1191 429c-4,-69 -55,-79 -52,-128 1,-23 12,-36 25,-50 -79,-42 -198,-72 -337,-86 -47,43 -77,92 -94,126 -6,-5 -14,-8 -22,-8l-69 1c-9,0 -17,3 -22,9 -19,-35 -52,-85 -103,-128 -142,14 -262,45 -341,88 17,19 36,32 38,61 4,50 -47,60 -48,129 0,7 -1,20 3,34 51,30 123,54 209,72 46,-19 91,-49 131,-76 29,-20 69,-50 111,-91 6,5 14,9 23,9l69 -1c9,0 17,-4 23,-10 44,40 84,69 114,88 44,28 92,59 143,75 81,-18 148,-44 196,-73 4,-18 4,-33 3,-41z"/>
    <path class="fil4" d="M633 254c-21,-45 -87,-167 -225,-216 -75,-26 -208,-43 -249,15 -19,28 -12,67 -10,78 11,64 61,69 65,118 4,49 -47,60 -48,129 -1,14 -1,49 24,79 23,28 55,37 69,40 89,20 177,-40 250,-89 30,-21 72,-53 117,-98 3,-18 5,-37 7,-56z"/>
    <path class="fil5" d="M252 362c42,-37 94,-39 154,-39 41,-1 104,2 181,24 12,-11 26,-23 39,-37 3,-18 5,-37 7,-56 -21,-45 -87,-167 -225,-216 -75,-26 -208,-43 -249,15 -19,28 -12,67 -10,78 11,64 61,69 65,118 4,49 -47,60 -48,129 -1,14 -1,49 24,79 2,3 5,5 8,8 -1,-55 45,-96 54,-103z"/>
    <path class="fil6 str0" d="M611 266c-26,-25 -66,-57 -122,-84 -67,-32 -128,-43 -168,-47"/>
    <path class="fil6 str0" d="M610 290c-23,-14 -58,-32 -102,-44 -44,-12 -81,-15 -109,-15"/>
    <path class="fil4" d="M720 253c20,-46 82,-170 219,-223 74,-28 206,-49 248,8 21,28 15,67 13,78 -9,64 -59,70 -61,119 -3,50 48,59 52,128 1,14 2,49 -21,80 -22,29 -55,38 -68,42 -88,22 -178,-35 -253,-82 -31,-20 -74,-50 -120,-94 -3,-19 -6,-37 -9,-56z"/>
    <path class="fil5" d="M1105 349c-44,-35 -96,-35 -155,-34 -42,0 -105,6 -180,30 -14,-11 -27,-23 -41,-36 -3,-19 -6,-37 -9,-56 20,-46 82,-170 219,-223 74,-28 206,-49 248,8 21,28 15,67 13,78 -9,64 -59,70 -61,119 -3,50 48,59 52,128 1,14 2,49 -21,80 -3,3 -5,5 -8,8 -2,-55 -48,-94 -57,-102z"/>
    <path class="fil6 str0" d="M742 264c26,-25 65,-59 119,-87 67,-35 128,-47 168,-52"/>
    <path class="fil6 str0" d="M744 288c23,-15 57,-33 101,-47 43,-13 81,-17 108,-18"/>
    <path class="fil4" d="M712 344l-69 1c-17,0 -32,-14 -32,-31l-1 -45c0,-17 14,-31 32,-32l69 -1c17,0 32,14 32,31l1 45c0,17 -14,31 -32,32z"/>
    <path class="fil5" d="M684 316l-39 1c-10,0 -18,-8 -18,-18l0 -25c-1,-10 8,-18 18,-18l38 0c10,-1 19,7 19,17l0 25c0,10 -8,18 -18,18z"/>
   </g>
  </g>
  <rect class="fil7" x="2" width="1341" height="2039"/>
 </g>
</svg>

