<?xml version="1.0" encoding="UTF-8"?>
<!DOCTYPE svg PUBLIC "-//W3C//DTD SVG 1.1//EN" "http://www.w3.org/Graphics/SVG/1.1/DTD/svg11.dtd">
<!-- Creator: CorelDRAW X7 -->
<svg xmlns="http://www.w3.org/2000/svg" xml:space="preserve" width="24px" height="101px" version="1.1" style="shape-rendering:geometricPrecision; text-rendering:geometricPrecision; image-rendering:optimizeQuality; fill-rule:evenodd; clip-rule:evenodd"
viewBox="0 0 24 102"
 xmlns:xlink="http://www.w3.org/1999/xlink">
 <defs>
  <style type="text/css">
   <![CDATA[
    .fil6 {fill:none}
    .fil3 {fill:#FAD692}
    .fil2 {fill:#F3CD84}
    .fil4 {fill:#E5BD72}
    .fil5 {fill:#3959A3}
    .fil0 {fill:#2D4191}
    .fil1 {fill:#2F3D71}
   ]]>
  </style>
 </defs>
 <g id="Слой_x0020_1">
  <metadata id="CorelCorpID_0Corel-Layer"/>
  <g id="_1196112416">
   <path class="fil0" d="M0 96c0,3 3,6 6,6l12 0c3,0 6,-3 6,-6l-24 0z"/>
   <path class="fil1" d="M7 96c0,3 3,6 7,6l4 0c3,0 6,-3 6,-6l-17 0z"/>
   <polygon class="fil2" points="12,0 0,21 0,25 24,25 24,21 "/>
   <polygon class="fil3" points="0,21 0,25 7,25 7,21 12,0 "/>
   <polygon class="fil4" points="12,0 17,21 17,25 24,25 24,21 "/>
   <path class="fil0" d="M12 0l-3 5c0,0 2,1 3,1 2,0 3,-1 3,-1l-3 -5z"/>
   <path class="fil0" d="M21 24c-4,0 -4,-3 -4,-3 0,0 0,3 -5,3 -5,0 -5,-3 -5,-3 0,0 0,3 -3,3 -4,0 -4,-3 -4,-3l0 76 24 0 0 -76c0,0 0,3 -3,3z"/>
   <path class="fil5" d="M4 24c-4,0 -4,-3 -4,-3l0 76 7 0 0 -76c0,0 0,3 -3,3z"/>
   <path class="fil1" d="M21 24c-4,0 -4,-3 -4,-3l0 76 7 0 0 -76c0,0 0,3 -3,3z"/>
  </g>
  <rect class="fil6" width="24.2752" height="102.158"/>
 </g>
</svg>

