<?xml version="1.0" encoding="UTF-8"?>
<!DOCTYPE svg PUBLIC "-//W3C//DTD SVG 1.1//EN" "http://www.w3.org/Graphics/SVG/1.1/DTD/svg11.dtd">
<!-- Creator: CorelDRAW X7 -->
<svg xmlns="http://www.w3.org/2000/svg" xml:space="preserve" width="100px" height="152px" version="1.1" style="shape-rendering:geometricPrecision; text-rendering:geometricPrecision; image-rendering:optimizeQuality; fill-rule:evenodd; clip-rule:evenodd"
viewBox="0 0 3409 5177"
 xmlns:xlink="http://www.w3.org/1999/xlink">
 <defs>
  <style type="text/css">
   <![CDATA[
    .fil5 {fill:none}
    .fil0 {fill:#77BB5A;fill-rule:nonzero}
    .fil4 {fill:#A0E280;fill-rule:nonzero}
    .fil1 {fill:#E9C45D;fill-rule:nonzero}
    .fil3 {fill:#5A1919;fill-rule:nonzero;fill-opacity:0.090196}
    .fil2 {fill:white;fill-rule:nonzero;fill-opacity:0.239216}
   ]]>
  </style>
 </defs>
 <g id="РЎР_x00bb_РѕР_x2116__x0020_1">
  <metadata id="CorelCorpID_0Corel-Layer"/>
  <g id="_669863760">
   <path class="fil0" d="M3376 1479c0,-337 -3340,-319 -3340,19 0,0 0,3054 0,3054 0,338 748,612 1670,612 923,0 1670,-274 1670,-612 0,0 0,-3072 0,-3073z"/>
   <g>
    <path class="fil1" d="M354 2184c0,58 -47,105 -105,105 -58,0 -105,-47 -105,-105 0,-58 47,-105 105,-105 58,0 105,47 105,105z"/>
    <path class="fil1" d="M941 2370c0,58 -47,105 -105,105 -58,0 -105,-47 -105,-105 0,-58 47,-105 105,-105 58,0 105,47 105,105z"/>
    <path class="fil1" d="M1528 2467c0,58 -47,106 -105,106 -58,0 -105,-48 -105,-106 0,-58 47,-105 105,-105 58,0 105,47 105,105z"/>
    <path class="fil1" d="M2115 2467c0,58 -47,106 -105,106 -58,0 -105,-48 -105,-106 0,-58 47,-105 105,-105 58,0 105,47 105,105z"/>
    <path class="fil1" d="M2702 2386c0,58 -47,106 -105,106 -58,0 -105,-48 -105,-106 0,-58 47,-105 105,-105 58,0 105,47 105,105z"/>
    <path class="fil1" d="M3289 2202c0,58 -47,105 -105,105 -58,0 -105,-47 -105,-105 0,-58 47,-105 105,-105 58,0 105,47 105,105z"/>
   </g>
   <g>
    <path class="fil1" d="M354 2957c0,58 -47,105 -105,105 -58,0 -105,-47 -105,-105 0,-58 47,-105 105,-105 58,0 105,47 105,105z"/>
    <path class="fil1" d="M941 3143c0,59 -47,106 -105,106 -58,0 -105,-47 -105,-106 0,-58 47,-105 105,-105 58,0 105,47 105,105z"/>
    <path class="fil1" d="M1528 3241c0,58 -47,105 -105,105 -58,0 -105,-47 -105,-105 0,-59 47,-106 105,-106 58,0 105,47 105,106z"/>
    <path class="fil1" d="M2115 3241c0,58 -47,105 -105,105 -58,0 -105,-47 -105,-105 0,-59 47,-106 105,-106 58,0 105,47 105,106z"/>
    <path class="fil1" d="M2702 3160c0,58 -47,105 -105,105 -58,0 -105,-47 -105,-105 0,-59 47,-106 105,-106 58,0 105,47 105,106z"/>
    <path class="fil1" d="M3289 2975c0,59 -47,106 -105,106 -58,0 -105,-47 -105,-106 0,-58 47,-105 105,-105 58,0 105,47 105,105z"/>
   </g>
   <g>
    <path class="fil1" d="M354 3730c0,59 -47,106 -105,106 -58,0 -105,-47 -105,-106 0,-58 47,-105 105,-105 58,0 105,47 105,105z"/>
    <path class="fil1" d="M941 3917c0,58 -47,105 -105,105 -58,0 -105,-47 -105,-105 0,-58 47,-106 105,-106 58,0 105,48 105,106z"/>
    <path class="fil1" d="M1528 4014c0,58 -47,105 -105,105 -58,0 -105,-47 -105,-105 0,-58 47,-105 105,-105 58,0 105,47 105,105z"/>
    <path class="fil1" d="M2115 4014c0,58 -47,105 -105,105 -58,0 -105,-47 -105,-105 0,-58 47,-105 105,-105 58,0 105,47 105,105z"/>
    <path class="fil1" d="M2702 3933c0,58 -47,105 -105,105 -58,0 -105,-47 -105,-105 0,-58 47,-105 105,-105 58,0 105,47 105,105z"/>
    <path class="fil1" d="M3289 3749c0,58 -47,105 -105,105 -58,0 -105,-47 -105,-105 0,-58 47,-106 105,-106 58,0 105,48 105,106z"/>
   </g>
   <g>
    <path class="fil1" d="M354 4504c0,58 -47,105 -105,105 -58,0 -105,-47 -105,-105 0,-58 47,-106 105,-106 58,0 105,48 105,106z"/>
    <path class="fil1" d="M941 4690c0,58 -47,105 -105,105 -58,0 -105,-47 -105,-105 0,-58 47,-105 105,-105 58,0 105,47 105,105z"/>
    <path class="fil1" d="M1528 4787c0,58 -47,105 -105,105 -58,0 -105,-47 -105,-105 0,-58 47,-105 105,-105 58,0 105,47 105,105z"/>
    <path class="fil1" d="M2115 4787c0,58 -47,105 -105,105 -58,0 -105,-47 -105,-105 0,-58 47,-105 105,-105 58,0 105,47 105,105z"/>
    <path class="fil1" d="M2702 4706c0,58 -47,105 -105,105 -58,0 -105,-47 -105,-105 0,-58 47,-105 105,-105 58,0 105,47 105,105z"/>
    <path class="fil1" d="M3289 4522c0,58 -47,105 -105,105 -58,0 -105,-47 -105,-105 0,-58 47,-105 105,-105 58,0 105,47 105,105z"/>
   </g>
   <path class="fil2" d="M1617 5163c30,1 59,1 89,1 557,0 1049,-100 1352,-253l0 -3286 -1441 0 0 3538z"/>
   <path class="fil3" d="M36 1467c0,0 0,114 0,296 154,286 843,502 1670,502 827,0 1516,-216 1670,-502 0,-192 0,-314 0,-314 0,-338 -3340,-320 -3340,18z"/>
   <path class="fil0" d="M3409 1196c0,-344 -763,-623 -1703,-623 -940,0 -1702,279 -1702,623l0 373c0,344 762,623 1702,623 940,0 1703,-279 1703,-623l0 -373z"/>
   <path class="fil2" d="M1617 2191c30,1 59,1 89,1 552,0 1041,-96 1352,-245l0 -549 -1441 0 0 793z"/>
   <path class="fil4" d="M3409 1196c0,344 -763,623 -1703,623 -940,0 -1702,-279 -1702,-623 0,-344 762,-623 1702,-623 940,0 1703,279 1703,623z"/>
  </g>
  <rect class="fil5" width="3405" height="5177"/>
 </g>
</svg>

