<?xml version="1.0" encoding="UTF-8"?>
<!DOCTYPE svg PUBLIC "-//W3C//DTD SVG 1.1//EN" "http://www.w3.org/Graphics/SVG/1.1/DTD/svg11.dtd">
<!-- Creator: CorelDRAW X7 -->
<svg xmlns="http://www.w3.org/2000/svg" xml:space="preserve" width="24px" height="101px" version="1.1" style="shape-rendering:geometricPrecision; text-rendering:geometricPrecision; image-rendering:optimizeQuality; fill-rule:evenodd; clip-rule:evenodd"
viewBox="0 0 23 95"
 xmlns:xlink="http://www.w3.org/1999/xlink">
 <defs>
  <style type="text/css">
   <![CDATA[
    .fil6 {fill:none}
    .fil5 {fill:#EB5D44}
    .fil0 {fill:#E52D2E}
    .fil3 {fill:#FAD692}
    .fil1 {fill:#DE2025}
    .fil2 {fill:#F3CD84}
    .fil4 {fill:#E5BD72}
   ]]>
  </style>
 </defs>
 <g id="Слой_x0020_1">
  <metadata id="CorelCorpID_0Corel-Layer"/>
  <g id="_1169137504">
   <path class="fil0" d="M0 89c0,4 3,6 6,6l11 0c3,0 6,-2 6,-6l-23 0z"/>
   <path class="fil1" d="M7 89c0,4 3,6 6,6l4 0c3,0 6,-2 6,-6l-16 0z"/>
   <polygon class="fil2" points="11,40 0,59 0,63 23,63 23,59 "/>
   <polygon class="fil3" points="0,59 0,63 7,63 7,59 11,40 "/>
   <polygon class="fil4" points="11,40 16,59 16,63 23,63 23,59 "/>
   <path class="fil0" d="M11 40l-3 5c0,0 2,0 3,0 2,0 3,0 3,0l-3 -5z"/>
   <path class="fil0" d="M19 60c-3,0 -3,-1 -3,-1 0,0 0,1 -5,1 -4,0 -4,-1 -4,-1 0,0 0,1 -4,1 -3,0 -3,-1 -3,-1l0 31 23 0 0 -31c0,0 0,1 -4,1z"/>
   <path class="fil5" d="M3 60c-3,0 -3,-1 -3,-1l0 31 7 0 0 -31c0,0 0,1 -4,1z"/>
   <path class="fil1" d="M19 60c-3,0 -3,-1 -3,-1l0 31 7 0 0 -31c0,0 0,1 -4,1z"/>
  </g>
  <rect class="fil6" width="22.6371" height="95.2647"/>
 </g>
</svg>

