<?xml version="1.0" encoding="UTF-8"?>
<!DOCTYPE svg PUBLIC "-//W3C//DTD SVG 1.1//EN" "http://www.w3.org/Graphics/SVG/1.1/DTD/svg11.dtd">
<!-- Creator: CorelDRAW X7 -->
<svg xmlns="http://www.w3.org/2000/svg" xml:space="preserve" width="100px" height="152px" version="1.1" style="shape-rendering:geometricPrecision; text-rendering:geometricPrecision; image-rendering:optimizeQuality; fill-rule:evenodd; clip-rule:evenodd"
viewBox="0 0 2414 3667"
 xmlns:xlink="http://www.w3.org/1999/xlink">
 <defs>
  <style type="text/css">
   <![CDATA[
    .str0 {stroke:#62094C;stroke-width:8.60384}
    .fil9 {fill:none}
    .fil7 {fill:none;fill-rule:nonzero}
    .fil5 {fill:#88BE66;fill-rule:nonzero}
    .fil6 {fill:#AAE987;fill-rule:nonzero}
    .fil8 {fill:#E4F69F;fill-rule:nonzero}
    .fil0 {fill:#F65339;fill-rule:nonzero}
    .fil4 {fill:#FF7460;fill-rule:nonzero}
    .fil2 {fill:#5A1919;fill-rule:nonzero;fill-opacity:0.090196}
    .fil3 {fill:white;fill-rule:nonzero;fill-opacity:0.141176}
    .fil1 {fill:#CC9CD1;fill-rule:nonzero;fill-opacity:0.141176}
   ]]>
  </style>
 </defs>
 <g id="Слой_x0020_1">
  <metadata id="CorelCorpID_0Corel-Layer"/>
  <g id="_1044414288">
   <path class="fil0" d="M2389 2181c0,-239 -2366,-226 -2366,13 0,1 0,1022 0,1023 0,239 530,433 1183,433 653,0 1183,-194 1183,-433 0,-1 0,-1035 0,-1036z"/>
   <path class="fil1" d="M1143 3649c21,1 42,1 63,1 394,0 743,-71 958,-179l0 -1187 -1021 0 0 1365z"/>
   <path class="fil2" d="M23 2236c0,0 0,80 0,209 109,203 597,356 1183,356 586,0 1074,-153 1183,-356 0,-136 0,-222 0,-222 0,-239 -2366,-227 -2366,13z"/>
   <path class="fil0" d="M2412 2044c0,-244 -540,-442 -1206,-442 -666,0 -1206,198 -1206,442l0 263c0,244 540,442 1206,442 666,0 1206,-198 1206,-442l0 -263z"/>
   <path class="fil3" d="M1143 2748c21,1 42,1 63,1 390,0 737,-68 958,-173l0 -389 -1021 0 0 561z"/>
   <path class="fil4" d="M2412 2044c0,243 -540,441 -1206,441 -666,0 -1206,-198 -1206,-441 0,-244 540,-442 1206,-442 666,0 1206,198 1206,442z"/>
   <g>
    <path class="fil2" d="M2263 2173c-8,-145 -111,-165 -106,-270 2,-47 24,-76 50,-106 -160,-87 -402,-152 -686,-180 -95,91 -156,193 -191,265 -12,-10 -28,-17 -45,-17l-141 2c-17,1 -33,8 -44,19 -39,-74 -106,-179 -210,-269 -288,29 -533,96 -693,185 35,40 72,69 77,129 8,105 -95,128 -98,274 -1,14 -1,41 5,71 106,63 252,114 426,151 95,-39 185,-103 267,-160 59,-42 140,-105 227,-193 12,12 28,20 47,19l140 -2c19,0 35,-8 47,-20 89,85 171,146 232,185 89,59 188,124 291,159 164,-39 302,-92 398,-155 9,-37 8,-70 7,-87z"/>
    <path class="fil5" d="M1128 1805c-44,-95 -178,-354 -460,-456 -153,-56 -423,-92 -506,32 -39,59 -25,141 -21,164 23,136 125,145 133,249 8,104 -95,127 -98,273 -1,29 -2,103 48,166 47,60 113,78 141,84 181,43 360,-83 509,-188 62,-44 148,-110 239,-205 5,-40 10,-79 15,-119z"/>
    <path class="fil6" d="M350 2032c88,-77 193,-81 314,-83 84,-1 213,7 368,53 26,-24 53,-49 81,-78 5,-40 10,-79 15,-119 -44,-95 -178,-354 -460,-456 -153,-56 -423,-92 -506,32 -39,59 -25,141 -21,164 23,136 125,145 133,249 8,104 -95,127 -98,273 -1,29 -2,103 48,166 5,7 11,11 16,17 0,-116 92,-202 110,-218z"/>
    <path class="fil7 str0" d="M1082 1830c-53,-52 -135,-120 -247,-177 -137,-68 -263,-91 -344,-100"/>
    <path class="fil7 str0" d="M1080 1881c-48,-30 -118,-68 -208,-94 -88,-25 -166,-31 -222,-31"/>
    <path class="fil5" d="M1303 1802c41,-96 167,-359 446,-470 151,-60 421,-104 506,17 42,58 30,141 27,164 -19,136 -120,149 -125,252 -5,105 98,125 106,271 2,28 5,103 -43,167 -45,61 -112,81 -139,89 -179,48 -362,-73 -514,-173 -64,-42 -151,-106 -246,-198 -6,-40 -12,-79 -18,-119z"/>
    <path class="fil6" d="M2087 2006c-89,-75 -195,-75 -316,-73 -84,1 -212,12 -366,63 -27,-23 -55,-47 -84,-75 -6,-40 -12,-79 -18,-119 41,-96 167,-359 446,-470 151,-60 421,-104 506,17 42,58 30,141 27,164 -19,136 -120,149 -125,252 -5,105 98,125 106,271 2,28 5,103 -43,167 -5,7 -11,11 -16,17 -3,-116 -98,-198 -117,-214z"/>
    <path class="fil7 str0" d="M1350 1826c51,-54 131,-124 242,-184 135,-73 259,-100 340,-110"/>
    <path class="fil7 str0" d="M1353 1877c47,-32 116,-71 206,-100 87,-28 164,-36 220,-38"/>
    <path class="fil5" d="M1288 1994l-140 2c-36,0 -66,-29 -67,-65l-1 -95c-1,-36 28,-66 64,-66l141 -2c36,-1 66,28 67,64l1 95c1,36 -29,66 -65,67z"/>
    <path class="fil8" d="M1231 1935l-79 2c-20,0 -37,-16 -37,-37l-1 -53c-1,-21 16,-38 36,-38l79 -1c21,0 38,16 38,36l1 54c0,20 -16,37 -37,37z"/>
   </g>
  </g>
  <rect class="fil9" x="2" width="2412" height="3667"/>
 </g>
</svg>

