<?xml version="1.0" encoding="UTF-8"?>
<!DOCTYPE svg PUBLIC "-//W3C//DTD SVG 1.1//EN" "http://www.w3.org/Graphics/SVG/1.1/DTD/svg11.dtd">
<!-- Creator: CorelDRAW X7 -->
<svg xmlns="http://www.w3.org/2000/svg" xml:space="preserve" width="149px" height="53px" version="1.1" style="shape-rendering:geometricPrecision; text-rendering:geometricPrecision; image-rendering:optimizeQuality; fill-rule:evenodd; clip-rule:evenodd"
viewBox="0 0 373 132"
 xmlns:xlink="http://www.w3.org/1999/xlink">
 <defs>
  <style type="text/css">
   <![CDATA[
    .fil1 {fill:#1A1A16}
    .fil6 {fill:#629ADB}
    .fil3 {fill:#779A18}
    .fil7 {fill:#85B5ED}
    .fil2 {fill:#8AB51A}
    .fil4 {fill:#9AC81D}
    .fil5 {fill:#AFDF2B}
    .fil10 {fill:#DAE9F2}
    .fil8 {fill:#DBFF31}
    .fil13 {fill:#DF2828}
    .fil12 {fill:#FFD400}
    .fil9 {fill:#312A2A;fill-rule:nonzero}
    .fil0 {fill:#34332D;fill-rule:nonzero}
    .fil15 {fill:#363631;fill-rule:nonzero}
    .fil16 {fill:#646256;fill-rule:nonzero}
    .fil17 {fill:#BDC3C8;fill-rule:nonzero}
    .fil14 {fill:#DBFF31;fill-rule:nonzero}
    .fil11 {fill:#EDBA00;fill-rule:nonzero}
   ]]>
  </style>
 </defs>
 <g id="Слой_x0020_1">
  <metadata id="CorelCorpID_0Corel-Layer"/>
  <g id="_669279440">
   <g>
    <g>
     <path class="fil0" d="M42 95c-1,3 -2,7 -2,12 0,14 11,25 25,25 14,0 26,-11 26,-25 0,-5 -1,-9 -3,-12l-46 0zm230 0l0 0 -46 0c-2,3 -3,7 -3,12 0,14 12,25 26,25 14,0 26,-11 26,-25 0,-5 -1,-9 -3,-12z"/>
    </g>
   </g>
   <g>
    <g>
     <path class="fil1" d="M324 81c-14,0 -26,12 -26,26 0,14 12,25 26,25 14,0 26,-11 26,-25 0,-14 -12,-26 -26,-26z"/>
    </g>
   </g>
   <g>
    <g>
     <path class="fil0" d="M316 81c-14,0 -26,12 -26,26 0,14 12,25 26,25 14,0 26,-11 26,-25 0,-14 -12,-26 -26,-26zm0 38l0 0c-6,0 -12,-6 -12,-12 0,-7 6,-12 12,-12 7,0 12,5 12,12 0,6 -5,12 -12,12z"/>
    </g>
   </g>
   <g>
    <g>
     <path class="fil2" d="M354 61l-65 -10 -4 -6 -182 0 -20 40 0 20 8 8 267 0 8 -8c0,0 0,-28 0,-34 0,-8 -12,-10 -12,-10z"/>
    </g>
   </g>
   <g>
    <g>
     <polygon class="fil3" points="275,105 275,113 358,113 366,105 "/>
    </g>
   </g>
   <g>
    <g>
     <polygon class="fil1" points="312,107 306,113 344,113 344,107 "/>
    </g>
   </g>
   <g>
    <g>
     <path class="fil4" d="M354 61l-65 -10 -3 -4 -108 0 0 24 188 0c0,-8 -12,-10 -12,-10z"/>
    </g>
   </g>
   <g>
    <g>
     <path class="fil4" d="M259 10c0,0 -8,-10 -20,-10 -4,0 -113,0 -113,0l0 53 174 0 -41 -43z"/>
    </g>
   </g>
   <g>
    <g>
     <path class="fil5" d="M239 0l-87 0 0 6 103 0c-4,-3 -9,-6 -16,-6zm54 45l0 0 -95 0 0 6 100 0 -5 -6z"/>
    </g>
   </g>
   <g>
    <g>
     <path class="fil5" d="M279 61l-66 -10 -23 -41c0,0 -6,-10 -14,-10 -4,0 -103,0 -113,0 -12,0 -23,16 -23,16l-22 33c0,0 -10,14 -10,26 0,4 0,30 0,30l8 8 267 0 7 -8c0,0 0,-28 0,-34 0,-8 -11,-10 -11,-10z"/>
    </g>
   </g>
   <g>
    <g>
     <path class="fil6" d="M71 10c-5,0 -18,0 -26,0 -3,3 -5,6 -5,6l-20 29c4,0 30,0 37,0 8,0 10,-7 10,-7l10 -22c0,0 2,-6 -6,-6zm129 28l0 0 -10 -20c0,0 -4,-8 -12,-8 0,0 -22,0 -30,0 -6,0 -8,8 -8,8l-6 20c0,0 -2,7 6,7 8,0 57,0 57,0 4,0 6,-3 3,-7zm-74 -28l0 0c-7,0 -33,0 -33,0 -6,0 -8,6 -8,6l-10 22c0,0 -2,7 6,7 0,0 28,0 36,0 7,0 9,-7 9,-7l6 -20c0,0 3,-8 -6,-8z"/>
    </g>
   </g>
   <g>
    <g>
     <path class="fil7" d="M71 10c-5,0 -18,0 -26,0 -3,3 -5,6 -5,6l-20 29c4,0 30,0 37,0 8,0 10,-7 10,-7l10 -22c0,0 2,-6 -6,-6zm57 2l0 0c-7,0 -33,0 -33,0 -6,0 -8,6 -8,6l-10 22c0,0 -1,2 0,5 1,0 3,0 4,0 0,0 28,0 36,0 7,0 9,-7 9,-7l6 -20c0,0 1,-3 0,-5 -1,-1 -2,-1 -4,-1zm72 26l0 0 -10 -20c0,0 -1,-2 -2,-3 -2,-2 -5,-3 -8,-3 0,0 -22,0 -30,0 -6,0 -8,8 -8,8l-6 20c0,0 0,2 1,5 1,0 2,0 3,0 8,0 57,0 57,0 4,0 6,-3 3,-7z"/>
    </g>
   </g>
   <g>
    <g>
     <polygon class="fil4" points="8,105 16,113 283,113 290,105 "/>
    </g>
   </g>
   <g>
    <g>
     <path class="fil8" d="M176 0l-113 0c-5,0 -10,3 -14,6l138 0c-3,-3 -7,-6 -11,-6zm37 51l0 0 -3 -6 -190 0 -2 4c0,0 -1,1 -2,2l197 0 0 0z"/>
    </g>
   </g>
   <g>
    <g>
     <path class="fil6" d="M285 38l-18 -20c0,0 -6,-8 -14,-8l-51 0c-4,0 -6,3 -3,8l12 20c2,4 8,7 12,7l59 0c4,0 6,-3 3,-7z"/>
    </g>
   </g>
   <g>
    <g>
     <path class="fil9" d="M204 45l-8 -9 0 0c0,-4 -3,-6 -6,-6l-8 0c-3,0 -6,2 -6,6 0,3 3,5 6,5l8 0c1,0 1,0 2,0l4 4 8 0z"/>
    </g>
   </g>
   <g>
    <g>
     <path class="fil9" d="M86 57l-12 0c-2,0 -3,2 -3,3 0,2 1,3 3,3l12 0c2,0 3,-1 3,-3 0,-1 -1,-3 -3,-3zm59 0l0 0 -12 0c-1,0 -3,2 -3,3 0,2 2,3 3,3l12 0c2,0 3,-1 3,-3 0,-1 -1,-3 -3,-3z"/>
    </g>
   </g>
   <g>
    <g>
     <path class="fil10" d="M353 71c-5,0 -9,4 -9,9 0,5 0,13 0,13l22 0 0 -22 -13 0zm-48 0l0 0 -13 0 0 22 22 0c0,0 0,-8 0,-13 0,-5 -4,-9 -9,-9z"/>
    </g>
   </g>
   <g>
    <g>
     <path class="fil11" d="M289 93l5 0 0 -22 -5 0 0 22zm75 -22l0 0 0 22 4 0 0 -22 -4 0z"/>
    </g>
   </g>
   <g>
    <g>
     <path class="fil12" d="M287 71c-5,0 -8,4 -8,8l0 6c0,4 3,8 8,8l3 0 0 -22 -3 0z"/>
    </g>
   </g>
   <g>
    <g>
     <path class="fil13" d="M12 71l-4 0 0 18 12 0 0 -10c0,-4 -4,-8 -8,-8z"/>
    </g>
   </g>
   <g>
    <g>
     <path class="fil4" d="M366 83l-117 0c-4,0 -8,4 -8,8l0 2c0,4 4,8 8,8l117 0c4,0 7,-4 7,-8l0 -2c0,-4 -3,-8 -7,-8z"/>
    </g>
   </g>
   <g>
    <g>
     <path class="fil14" d="M290 83l-282 0c-4,0 -8,4 -8,8l0 2c0,4 4,8 8,8l39 0 0 -14 194 0 0 14 49 0c5,0 8,-4 8,-8l0 -2c0,-4 -3,-8 -8,-8z"/>
    </g>
   </g>
   <g>
    <g>
     <path class="fil15" d="M241 77c-16,0 -30,13 -30,30l0 6 60 0 0 -6c0,-17 -14,-30 -30,-30zm-184 0l0 0c-16,0 -29,13 -29,30l0 6 59 0 0 -6c0,-17 -13,-30 -30,-30z"/>
    </g>
   </g>
   <g>
    <g>
     <path class="fil16" d="M57 81c-14,0 -25,12 -25,26 0,14 11,25 25,25 14,0 26,-11 26,-25 0,-14 -12,-26 -26,-26zm184 0l0 0c-14,0 -26,12 -26,26 0,14 12,25 26,25 14,0 26,-11 26,-25 0,-14 -12,-26 -26,-26z"/>
    </g>
   </g>
   <g>
    <g>
     <path class="fil17" d="M241 95c-6,0 -12,5 -12,12 0,6 6,12 12,12 7,0 12,-6 12,-12 0,-7 -5,-12 -12,-12zm-184 0l0 0c-6,0 -12,5 -12,12 0,6 6,12 12,12 7,0 12,-6 12,-12 0,-7 -5,-12 -12,-12z"/>
    </g>
   </g>
  </g>
 </g>
</svg>

